{
  "accessors": [
    {
      "bufferView": 2,
      "componentType": 5126,
      "count": 3464,
      "max": [
        13.762249946594238,
        4.2420520782470703,
        16.987905502319336
      ],
      "min": [
        -13.762249946594238,
        -7.5109109878540039,
        -7.6704111099243164
      ],
      "type": "VEC3"
    },
    {
      "bufferView": 2,
      "byteOffset": 41568,
      "componentType": 5126,
      "count": 3464,
      "max": [
        0.99960964918136597,
        0.9991270899772644,
        1
      ],
      "min": [
        -0.99960964918136597,
        -0.99739676713943481,
        -1
      ],
      "type": "VEC3"
    },
    {
      "bufferView": 3,
      "componentType": 5126,
      "count": 3464,
      "max": [
        1,
        0.99025720357894897,
        0.98838353157043457,
        1
      ],
      "min": [
        -0.99802613258361816,
        -0.99407500028610229,
        -0.99079793691635132,
        -1
      ],
      "type": "VEC4"
    },
    {
      "bufferView": 1,
      "componentType": 5126,
      "count": 3464,
      "max": [
        0.9941679835319519,
        0.99628102779388428
      ],
      "min": [
        0.016846999526023865,
        0.007431000005453825
      ],
      "type": "VEC2"
    },
    {
      "bufferView": 0,
      "componentType": 5125,
      "count": 9168,
      "max": [
        3463
      ],
      "min": [
        0
      ],
      "type": "SCALAR"
    },
    {
      "bufferView": 2,
      "byteOffset": 83136,
      "componentType": 5126,
      "count": 7479,
      "max": [
        14.10194206237793,
        3.7982618808746338,
        17.502397537231445
      ],
      "min": [
        -14.10194206237793,
        -7.4362797737121582,
        -10.223546028137207
      ],
      "type": "VEC3"
    },
    {
      "bufferView": 2,
      "byteOffset": 172884,
      "componentType": 5126,
      "count": 7479,
      "max": [
        0.9995923638343811,
        0.99991297721862793,
        0.99964052438735962
      ],
      "min": [
        -0.99968177080154419,
        -0.99997377395629883,
        -0.99986398220062256
      ],
      "type": "VEC3"
    },
    {
      "bufferView": 3,
      "byteOffset": 55424,
      "componentType": 5126,
      "count": 7479,
      "max": [
        0.9999462366104126,
        0.99999397993087769,
        0.99974411725997925,
        1
      ],
      "min": [
        -0.99989521503448486,
        -0.99999308586120605,
        -0.99990165233612061,
        -1
      ],
      "type": "VEC4"
    },
    {
      "bufferView": 1,
      "byteOffset": 27712,
      "componentType": 5126,
      "count": 7479,
      "max": [
        0.98715502023696899,
        0.58028000593185425
      ],
      "min": [
        0.0056360000744462013,
        0.013338999822735786
      ],
      "type": "VEC2"
    },
    {
      "bufferView": 0,
      "byteOffset": 36672,
      "componentType": 5125,
      "count": 19284,
      "max": [
        7478
      ],
      "min": [
        0
      ],
      "type": "SCALAR"
    },
    {
      "bufferView": 2,
      "byteOffset": 262632,
      "componentType": 5126,
      "count": 4942,
      "max": [
        9.6482944488525391,
        4.7059412002563477,
        16.987905502319336
      ],
      "min": [
        -10.261005401611328,
        -10.247250556945801,
        0.4717240035533905
      ],
      "type": "VEC3"
    },
    {
      "bufferView": 2,
      "byteOffset": 321936,
      "componentType": 5126,
      "count": 4942,
      "max": [
        0.99808222055435181,
        0.99900233745574951,
        0.99920737743377686
      ],
      "min": [
        -0.99814265966415405,
        -0.99444448947906494,
        -0.99999576807022095
      ],
      "type": "VEC3"
    },
    {
      "bufferView": 3,
      "byteOffset": 175088,
      "componentType": 5126,
      "count": 4942,
      "max": [
        0.99997597932815552,
        0.99975770711898804,
        0.99999481439590454,
        1
      ],
      "min": [
        -0.99895280599594116,
        -0.99565458297729492,
        -0.99845367670059204,
        -1
      ],
      "type": "VEC4"
    },
    {
      "bufferView": 1,
      "byteOffset": 87544,
      "componentType": 5126,
      "count": 4942,
      "max": [
        0.9941679835319519,
        0.98776799440383911
      ],
      "min": [
        0.20633600652217865,
        0.30324000120162964
      ],
      "type": "VEC2"
    },
    {
      "bufferView": 0,
      "byteOffset": 113808,
      "componentType": 5125,
      "count": 11796,
      "max": [
        4941
      ],
      "min": [
        0
      ],
      "type": "SCALAR"
    },
    {
      "bufferView": 2,
      "byteOffset": 381240,
      "componentType": 5126,
      "count": 578,
      "max": [
        3.9517710208892822,
        0.27188500761985779,
        13.226966857910156
      ],
      "min": [
        -3.9517710208892822,
        -4.4417462348937988,
        8.5969753265380859
      ],
      "type": "VEC3"
    },
    {
      "bufferView": 2,
      "byteOffset": 388176,
      "componentType": 5126,
      "count": 578,
      "max": [
        1,
        1,
        1
      ],
      "min": [
        -1,
        -1,
        -1
      ],
      "type": "VEC3"
    },
    {
      "bufferView": 3,
      "byteOffset": 254160,
      "componentType": 5126,
      "count": 578,
      "max": [
        0.999969482421875,
        0.99875324964523315,
        0.9999997615814209,
        1
      ],
      "min": [
        -0.999969482421875,
        -0.99874848127365112,
        -0.26686310768127441,
        -1
      ],
      "type": "VEC4"
    },
    {
      "bufferView": 0,
      "byteOffset": 160992,
      "componentType": 5125,
      "count": 3072,
      "max": [
        577
      ],
      "min": [
        0
      ],
      "type": "SCALAR"
    },
    {
      "bufferView": 2,
      "byteOffset": 395112,
      "componentType": 5126,
      "count": 578,
      "max": [
        3.9291200637817383,
        0.24894100427627563,
        13.204046249389648
      ],
      "min": [
        -3.9291200637817383,
        -4.1824431419372559,
        8.6198959350585938
      ],
      "type": "VEC3"
    },
    {
      "bufferView": 2,
      "byteOffset": 402048,
      "componentType": 5126,
      "count": 578,
      "max": [
        1,
        1,
        1
      ],
      "min": [
        -1,
        -1,
        -1
      ],
      "type": "VEC3"
    },
    {
      "bufferView": 3,
      "byteOffset": 263408,
      "componentType": 5126,
      "count": 578,
      "max": [
        0.99996954202651978,
        0.99875324964523315,
        0.9999997615814209,
        1
      ],
      "min": [
        -0.99996954202651978,
        -0.99874848127365112,
        -0.26686316728591919,
        -1
      ],
      "type": "VEC4"
    },
    {
      "bufferView": 1,
      "byteOffset": 127080,
      "componentType": 5126,
      "count": 578,
      "max": [
        0.40210199356079102,
        0.98779702186584473
      ],
      "min": [
        0.0082440003752708435,
        0.5939369797706604
      ],
      "type": "VEC2"
    },
    {
      "bufferView": 0,
      "byteOffset": 173280,
      "componentType": 5125,
      "count": 3072,
      "max": [
        577
      ],
      "min": [
        0
      ],
      "type": "SCALAR"
    },
    {
      "bufferView": 2,
      "byteOffset": 408984,
      "componentType": 5126,
      "count": 4021,
      "max": [
        8.0409364700317383,
        16.518871307373047,
        1.5741629600524902
      ],
      "min": [
        -5.8797311782836914,
        -4.0077710151672363,
        -21.616619110107422
      ],
      "type": "VEC3"
    },
    {
      "bufferView": 2,
      "byteOffset": 457236,
      "componentType": 5126,
      "count": 4021,
      "max": [
        0.99992138147354126,
        0.9993283748626709,
        0.99989348649978638
      ],
      "min": [
        -0.99992138147354126,
        -0.99996048212051392,
        -0.99999737739562988
      ],
      "type": "VEC3"
    },
    {
      "bufferView": 3,
      "byteOffset": 272656,
      "componentType": 5126,
      "count": 4021,
      "max": [
        0.99995040893554688,
        0.99883174896240234,
        0.9278484582901001,
        1
      ],
      "min": [
        -0.99996662139892578,
        -0.99950796365737915,
        -0.89931756258010864,
        -1
      ],
      "type": "VEC4"
    },
    {
      "bufferView": 1,
      "byteOffset": 131704,
      "componentType": 5126,
      "count": 4021,
      "max": [
        0.98311799764633179,
        0.98298001289367676
      ],
      "min": [
        0.027807999402284622,
        0.011121000163257122
      ],
      "type": "VEC2"
    },
    {
      "bufferView": 0,
      "byteOffset": 185568,
      "componentType": 5125,
      "count": 7992,
      "max": [
        4020
      ],
      "min": [
        0
      ],
      "type": "SCALAR"
    },
    {
      "bufferView": 2,
      "byteOffset": 505488,
      "componentType": 5126,
      "count": 5484,
      "max": [
        12.418460845947266,
        5.7296252250671387,
        5.7266421318054199
      ],
      "min": [
        -12.418460845947266,
        -5.1545791625976562,
        -10.528080940246582
      ],
      "type": "VEC3"
    },
    {
      "bufferView": 2,
      "byteOffset": 571296,
      "componentType": 5126,
      "count": 5484,
      "max": [
        0.99992775917053223,
        0.99996721744537354,
        0.9993126392364502
      ],
      "min": [
        -0.99992775917053223,
        -0.99759966135025024,
        -0.99980449676513672
      ],
      "type": "VEC3"
    },
    {
      "bufferView": 3,
      "byteOffset": 336992,
      "componentType": 5126,
      "count": 5484,
      "max": [
        0.99999302625656128,
        0.99981629848480225,
        0.96564358472824097,
        1
      ],
      "min": [
        -0.99035799503326416,
        -0.99896472692489624,
        -0.9969291090965271,
        -1
      ],
      "type": "VEC4"
    },
    {
      "bufferView": 1,
      "byteOffset": 163872,
      "componentType": 5126,
      "count": 5484,
      "max": [
        0.91860002279281616,
        0.99514597654342651
      ],
      "min": [
        0.018905000761151314,
        0.024764999747276306
      ],
      "type": "VEC2"
    },
    {
      "bufferView": 0,
      "byteOffset": 217536,
      "componentType": 5125,
      "count": 14424,
      "max": [
        5483
      ],
      "min": [
        0
      ],
      "type": "SCALAR"
    },
    {
      "bufferView": 2,
      "byteOffset": 637104,
      "componentType": 5126,
      "count": 4040,
      "max": [
        7.0832381248474121,
        4.7379469871520996,
        5.5687708854675293
      ],
      "min": [
        -7.0832381248474121,
        -3.5596120357513428,
        -8.8110380172729492
      ],
      "type": "VEC3"
    },
    {
      "bufferView": 2,
      "byteOffset": 685584,
      "componentType": 5126,
      "count": 4040,
      "max": [
        0.99790877103805542,
        0.99959909915924072,
        0.99904322624206543
      ],
      "min": [
        -0.99790936708450317,
        -0.99517536163330078,
        -0.99930822849273682
      ],
      "type": "VEC3"
    },
    {
      "bufferView": 3,
      "byteOffset": 424736,
      "componentType": 5126,
      "count": 4040,
      "max": [
        1,
        0.99997115135192871,
        0.9911009669303894,
        1
      ],
      "min": [
        -0.99984842538833618,
        -0.99984532594680786,
        -0.99106073379516602,
        -1
      ],
      "type": "VEC4"
    },
    {
      "bufferView": 1,
      "byteOffset": 207744,
      "componentType": 5126,
      "count": 4040,
      "max": [
        0.98246699571609497,
        0.97050297260284424
      ],
      "min": [
        0.013542000204324722,
        0.092969000339508057
      ],
      "type": "VEC2"
    },
    {
      "bufferView": 0,
      "byteOffset": 275232,
      "componentType": 5125,
      "count": 13680,
      "max": [
        4039
      ],
      "min": [
        0
      ],
      "type": "SCALAR"
    }
  ],
  "asset": {
    "extras": {
      "author": "Son (https://sketchfab.com/son30031996)",
      "license": "CC-BY-4.0 (http://creativecommons.org/licenses/by/4.0/)",
      "source": "https://sketchfab.com/models/895afdae57aa4020b32e517863e9bfcf",
      "title": "Raccoon"
    },
    "generator": "Sketchfab-3.18.5",
    "version": "2.0"
  },
  "bufferViews": [
    {
      "buffer": 0,
      "byteLength": 329952,
      "byteOffset": 0,
      "name": "floatBufferViews",
      "target": 34963
    },
    {
      "buffer": 0,
      "byteLength": 240064,
      "byteOffset": 329952,
      "byteStride": 8,
      "name": "floatBufferViews",
      "target": 34962
    },
    {
      "buffer": 0,
      "byteLength": 734064,
      "byteOffset": 570016,
      "byteStride": 12,
      "name": "floatBufferViews",
      "target": 34962
    },
    {
      "buffer": 0,
      "byteLength": 489376,
      "byteOffset": 1304080,
      "byteStride": 16,
      "name": "floatBufferViews",
      "target": 34962
    }
  ],
  "buffers": [
    {
      "byteLength": 1793456,
      "uri": "scene.bin"
    }
  ],
  "images": [
    {
      "uri": "textures/aiStandardSurface1SG_baseColor.jpg"
    },
    {
      "uri": "textures/aiStandardSurface4SG_baseColor.jpg"
    },
    {
      "uri": "textures/aiStandardSurface3SG_baseColor.jpg"
    }
  ],
  "materials": [
    {
      "doubleSided": true,
      "emissiveFactor": [
        0,
        0,
        0
      ],
      "name": "aiStandardSurface1SG",
      "pbrMetallicRoughness": {
        "baseColorFactor": [
          1,
          1,
          1,
          1
        ],
        "baseColorTexture": {
          "index": 0,
          "texCoord": 0
        },
        "metallicFactor": 0,
        "roughnessFactor": 0.59999999999999998
      }
    },
    {
      "alphaMode": "BLEND",
      "doubleSided": false,
      "emissiveFactor": [
        0,
        0,
        0
      ],
      "name": "aiStandardSurface2SG",
      "pbrMetallicRoughness": {
        "baseColorFactor": [
          1,
          1,
          1,
          0
        ],
        "metallicFactor": 0,
        "roughnessFactor": 0.59999999999999998
      }
    },
    {
      "doubleSided": true,
      "emissiveFactor": [
        0,
        0,
        0
      ],
      "name": "aiStandardSurface3SG",
      "pbrMetallicRoughness": {
        "baseColorFactor": [
          1,
          1,
          1,
          1
        ],
        "baseColorTexture": {
          "index": 2,
          "texCoord": 0
        },
        "metallicFactor": 0,
        "roughnessFactor": 0.59999999999999998
      }
    },
    {
      "doubleSided": true,
      "emissiveFactor": [
        0,
        0,
        0
      ],
      "name": "aiStandardSurface4SG",
      "pbrMetallicRoughness": {
        "baseColorFactor": [
          1,
          1,
          1,
          1
        ],
        "baseColorTexture": {
          "index": 1,
          "texCoord": 0
        },
        "metallicFactor": 0,
        "roughnessFactor": 0.59999999999999998
      }
    }
  ],
  "meshes": [
    {
      "primitives": [
        {
          "attributes": {
            "NORMAL": 1,
            "POSITION": 0,
            "TANGENT": 2,
            "TEXCOORD_0": 3
          },
          "indices": 4,
          "material": 0,
          "mode": 4
        }
      ]
    },
    {
      "primitives": [
        {
          "attributes": {
            "NORMAL": 6,
            "POSITION": 5,
            "TANGENT": 7,
            "TEXCOORD_0": 8
          },
          "indices": 9,
          "material": 0,
          "mode": 4
        }
      ]
    },
    {
      "primitives": [
        {
          "attributes": {
            "NORMAL": 11,
            "POSITION": 10,
            "TANGENT": 12,
            "TEXCOORD_0": 13
          },
          "indices": 14,
          "material": 0,
          "mode": 4
        }
      ]
    },
    {
      "primitives": [
        {
          "attributes": {
            "NORMAL": 16,
            "POSITION": 15,
            "TANGENT": 17
          },
          "indices": 18,
          "material": 1,
          "mode": 4
        }
      ]
    },
    {
      "primitives": [
        {
          "attributes": {
            "NORMAL": 20,
            "POSITION": 19,
            "TANGENT": 21,
            "TEXCOORD_0": 22
          },
          "indices": 23,
          "material": 2,
          "mode": 4
        }
      ]
    },
    {
      "primitives": [
        {
          "attributes": {
            "NORMAL": 25,
            "POSITION": 24,
            "TANGENT": 26,
            "TEXCOORD_0": 27
          },
          "indices": 28,
          "material": 3,
          "mode": 4
        }
      ]
    },
    {
      "primitives": [
        {
          "attributes": {
            "NORMAL": 30,
            "POSITION": 29,
            "TANGENT": 31,
            "TEXCOORD_0": 32
          },
          "indices": 33,
          "material": 3,
          "mode": 4
        }
      ]
    },
    {
      "primitives": [
        {
          "attributes": {
            "NORMAL": 35,
            "POSITION": 34,
            "TANGENT": 36,
            "TEXCOORD_0": 37
          },
          "indices": 38,
          "material": 3,
          "mode": 4
        }
      ]
    }
  ],
  "nodes": [
    {
      "children": [
        1
      ],
      "name": "RootNode (gltf orientation matrix)",
      "rotation": [
        -0.70710678118654746,
        -0,
        -0,
        0.70710678118654757
      ]
    },
    {
      "children": [
        2
      ],
      "name": "RootNode (model correction matrix)"
    },
    {
      "children": [
        3,
        4,
        5,
        6,
        7,
        8,
        9,
        10
      ],
      "name": "full_text.obj.cleaner.materialmerger.gles"
    },
    {
      "mesh": 0,
      "name": ""
    },
    {
      "mesh": 1,
      "name": ""
    },
    {
      "mesh": 2,
      "name": ""
    },
    {
      "mesh": 3,
      "name": ""
    },
    {
      "mesh": 4,
      "name": ""
    },
    {
      "mesh": 5,
      "name": ""
    },
    {
      "mesh": 6,
      "name": ""
    },
    {
      "mesh": 7,
      "name": ""
    }
  ],
  "samplers": [
    {
      "magFilter": 9729,
      "minFilter": 9987,
      "wrapS": 10497,
      "wrapT": 10497
    }
  ],
  "scene": 0,
  "scenes": [
    {
      "name": "OSG_Scene",
      "nodes": [
        0
      ]
    }
  ],
  "textures": [
    {
      "sampler": 0,
      "source": 0
    },
    {
      "sampler": 0,
      "source": 1
    },
    {
      "sampler": 0,
      "source": 2
    }
  ]
}

